<svg width="109" height="123" viewBox="0 0 109 123" fill="none" xmlns="http://www.w3.org/2000/svg">
<path d="M45.0039 122.663C42.3672 122.663 40.375 120.554 40.375 117.917V5.00711C40.375 2.37039 42.3672 0.261017 45.0039 0.261017C47.6992 0.261017 49.8086 2.37039 49.8086 5.00711V117.917C49.8086 120.554 47.6992 122.663 45.0039 122.663ZM84.4961 109.656C81.7422 109.656 79.75 107.546 79.75 104.968V17.9563C79.75 15.3782 81.7422 13.2102 84.4961 13.2102C87.1328 13.2102 89.1836 15.3782 89.1836 17.9563V104.968C89.1836 107.546 87.1328 109.656 84.4961 109.656ZM25.3164 99.0501C22.6797 99.0501 20.6289 96.9407 20.6289 94.304V28.6204C20.6289 25.9837 22.6797 23.8157 25.3164 23.8157C28.0117 23.8157 30.0625 25.9837 30.0625 28.6204V94.304C30.0625 96.9407 28.0117 99.0501 25.3164 99.0501ZM64.75 91.9016C62.0547 91.9016 60.0625 89.8509 60.0625 87.2141V35.7102C60.0625 33.0735 62.0547 30.9641 64.75 30.9641C67.4453 30.9641 69.4961 33.0735 69.4961 35.7102V87.2141C69.4961 89.8509 67.4453 91.9016 64.75 91.9016ZM104.184 80.1243C101.488 80.1243 99.4961 78.0149 99.4961 75.4368V47.4876C99.4961 44.9095 101.488 42.7415 104.184 42.7415C106.82 42.7415 108.93 44.9095 108.93 47.4876V75.4368C108.93 78.0149 106.82 80.1243 104.184 80.1243ZM5.57031 75.0852C2.93359 75.0852 0.941406 72.9759 0.941406 70.3391V52.5852C0.941406 49.9485 2.93359 47.7805 5.57031 47.7805C8.32422 47.7805 10.375 49.9485 10.375 52.5852V70.3391C10.375 72.9759 8.32422 75.0852 5.57031 75.0852Z" fill="#83daff"/>
</svg>
